# AST/ASF file generated using VICON BodyLanguage
# -----------------------------------------------
:version 1.10
:name VICON
:units
  mass 1.0
  length 0.45
  angle deg
:documentation
   .ast/.asf automatically generated from VICON data using
   VICON BodyBuilder and BodyLanguage model FoxedUp or BRILLIANT.MOD
:root
   order TX TY TZ RX RY RZ
   axis XYZ
   position 0 0 0  
   orientation 0 0 0 
:bonedata
  begin
     id 1 
     name lhipjoint
     direction 0.630082 -0.636569 0.44472 
     length 2.82754 
     axis 0 0 0  XYZ
  end
  begin
     id 2 
     name lfemur
     direction 0.34202 -0.939693 0  
     length 7.26371  
     axis 0 0 20  XYZ
    dof rx ry rz
    limits (-160.0 20.0)
           (-70.0 70.0)
           (-60.0 70.0)
  end
  begin
     id 3 
     name ltibia
     direction 0.34202 -0.939693 0   
     length 7.88616   
     axis 0 0 20   XYZ
    dof rx
    limits (-10.0 170.0)
  end
  begin
     id 4 
     name lfoot
     direction 0.0603448 -0.165796 0.984312   
     length 1.77861   
     axis -90 7.62852e-016 20   XYZ
    dof rx rz
    limits (-45.0 90.0)
           (-70.0 20.0)
  end
  begin
     id 5 
     name ltoes
     direction 1.53577e-011 -4.21876e-011 1   
     length 0.902235   
     axis -90 7.62852e-016 20   XYZ
    dof rx
    limits (-90.0 20.0)
  end
  begin
     id 6 
     name rhipjoint
     direction -0.656778 -0.61817 0.431866   
     length 2.9117  
     axis 0 0 0  XYZ 
  end
  begin
     id 7 
     name rfemur
     direction -0.34202 -0.939693 0   
     length 6.81603   
     axis 0 0 -20   XYZ
    dof rx ry rz
    limits (-160.0 20.0)
           (-70.0 70.0)
           (-70.0 60.0)
  end
  begin
     id 8 
     name rtibia
     direction -0.34202 -0.939693 0   
     length 8.05997   
     axis 0 0 -20   XYZ
    dof rx
    limits (-10.0 170.0)
 end
 begin
     id 9 
     name rfoot
     direction -0.0862404 -0.236944 0.967688   
     length 1.84899  
     axis -90 -7.62852e-016 -20   XYZ
    dof rx rz
    limits (-45.0 90.0)
           (-20.0 70.0)
  end
  begin
     id 10 
     name rtoes
     direction -1.53561e-011 -4.21798e-011 1   
     length 0.931579   
     axis -90 -7.62852e-016 -20   XYZ
    dof rx
    limits (-90.0 20.0)
  end
  begin
     id 11 
     name lowerback
     direction -0.0110203 0.991769 -0.127564   
     length 2.05686   
     axis 0 0 0   XYZ
    dof rx ry rz
    limits (-20.0 45.0)
           (-30.0 30.0)
           (-30.0 30.0)
  end
  begin
     id 12 
     name upperback
     direction 0.0109719 0.99993 -0.00432479   
     length 2.06234   
     axis 0 0 0   XYZ
    dof rx ry rz
    limits (-20.0 45.0)
           (-30.0 30.0)
           (-30.0 30.0)
  end
  begin
     id 13 
     name thorax
     direction 0.0173308 0.998351 0.0547306   
     length 2.09856   
     axis 0 0 0   XYZ
    dof rx ry rz
    limits (-20.0 45.0)
           (-30.0 30.0)
           (-30.0 30.0)
  end
  begin
     id 14 
     name lowerneck
     direction -0.0311736 0.989033 0.144366   
     length 1.98151   
     axis 0 0 0   XYZ
    dof rx ry rz
    limits (-20.0 45.0)
           (-30.0 30.0)
           (-30.0 30.0)
  end
  begin
     id 15 
     name upperneck
     direction 0.0421057 0.975772 -0.214698   
     length 2.01457   
     axis 0 0 0   XYZ
    dof rx ry rz
    limits (-20.0 45.0)
           (-30.0 30.0)
           (-30.0 30.0)
  end
  begin
     id 16
     name head
     direction 0.0136911 0.995958 -0.0887718  
     length 2.03562  
     axis 0 0 0   XYZ
    dof rx ry rz
    limits (-20.0 45.0)
           (-30.0 30.0)
           (-30.0 30.0)
  end
  begin
     id 17 
     name lclavicle
     direction 0.915335 0.396201 0.0720134  
     length 4.16217  
     axis 0 0 0   XYZ
    dof ry rz
    limits (-20.0 10.0)
           (0.0 20.0)
  end
  begin
     id 18 
     name lhumerus
     direction 1 -4.48965e-011 6.383e-018   
     length 4.93042   
     axis -180 -30 -90   XYZ
    dof rx ry rz
    limits (-60.0 90.0)
           (-90.0 90.0)
           (-90.0 90.0)
  end
  begin
     id 19
     name lradius
     direction 1 -4.48972e-011 8.8689e-027   
     length 3.68177   
     axis -180 -30 -90   XYZ
    dof rx
    limits (-10.0 170.0)
  end
  begin
     id 20
     name lwrist
     direction 1 -4.48953e-011 1.17971e-026   
     length 1.84089   
     axis -7.69454e-015 90 90   XYZ
    dof ry
    limits (-180.0 0.0)
 end
  begin
     id 21 
     name lhand
     direction 1 -4.49027e-011 2.35802e-026   
     length 0.721479   
     axis -1.50533e-014 90 90   XYZ
    dof rx rz
    limits (-90.0 90.0)
           (-45.0 45.0)
  end
  begin
     id 22 
     name lfingers
     direction 1 -4.48915e-011 4.72027e-026   
     length 0.581675   
     axis -3.01059e-014 90 90   XYZ
    dof rx
    limits (0.0 90.0)
  end
  begin
     id 23
     name lthumb
     direction 0.707107 -6.34948e-011 0.707107   
     length 0.835172   
     axis -90 45 -5.12164e-014   XYZ
    dof rx rz
    limits (-45.0 45.0)
           (-45.0 45.0)
  end
  begin
     id 24 
     name rclavicle
     direction -0.882781 0.469197 0.0234974   
     length 3.95647  
     axis 0 0 0   XYZ 
    dof ry rz
    limits (-10.0 20.0)
           (-20.0 0.0)
  end
  begin
     id 25 
     name rhumerus
     direction -1 -4.48965e-011 -1.54906e-018  
     length 5.07905   
     axis -180 30 90   XYZ
    dof rx ry rz
    limits (-90.0 60.0)
           (-90.0 90.0)
           (-90.0 90.0)
  end
  begin
     id 26 
     name rradius
     direction -1 -4.48972e-011 5.47489e-027   
     length 3.54394   
     axis -180 30 90   XYZ
    dof rx
    limits (-10.0 170.0)
  end
  begin
     id 27 
     name rwrist
     direction -1 -4.48955e-011 1.17969e-026   
     length 1.77197   
     axis -7.69454e-015 -90 -90   XYZ
    dof ry
    limits (-180.0 0.0)
  end
  begin
     id 28
     name rhand
     direction -1 -4.48982e-011 2.35888e-026   
     length 0.681156   
     axis -1.50533e-014 -90 -90   XYZ
    dof rx rz
    limits (-90.0 90.0)
           (-45.0 45.0)
  end
  begin
     id 29
     name rfingers
     direction -1 -4.48955e-011 4.71877e-026   
     length 0.549165   
     axis -3.01059e-014 -90 -90   XYZ
    dof rx
    limits (0.0 90.0)
  end
  begin
     id 30
     name rthumb
     direction -0.707107 -6.3491e-011 0.707107   
     length 0.788495   
     axis -90 -45 5.12164e-014   XYZ
    dof rx rz
    limits (-45.0 45.0)
           (-45.0 45.0)
  end
:hierarchy
  begin
    root lhipjoint rhipjoint lowerback
    lhipjoint lfemur
    lfemur ltibia
    ltibia lfoot
    lfoot ltoes
    rhipjoint rfemur
    rfemur rtibia
    rtibia rfoot
    rfoot rtoes
    lowerback upperback
    upperback thorax
    thorax lowerneck lclavicle rclavicle
    lowerneck upperneck
    upperneck head
    lclavicle lhumerus
    lhumerus lradius
    lradius lwrist
    lwrist lhand lthumb
    lhand lfingers
    rclavicle rhumerus
    rhumerus rradius
    rradius rwrist
    rwrist rhand rthumb
    rhand rfingers
  end

#!OML:ASF H:\Bending\Project 1\Capture day 1\Session 1\Subject.ASF
:FULLY-SPECIFIED
:DEGREES
512
root -10.4457 17.9062 -16.4179 -99.7723 87.5964 -104.342
lowerback 3.49837 -0.0856889 1.32833
upperback -2.72977 0.0859403 2.07653
thorax -4.78601 0.05039 1.39535
lowerneck -23.006 -5.22601 -7.51175
upperneck 29.5198 -6.23489 5.68008
head 14.4573 -2.57909 2.43346
rclavicle 6.3052e-016 -2.8625e-014
rhumerus -37.1625 -2.09149 -80.2718
rradius 30.8228
rwrist 12.1332
rhand -15.7305 -19.2278
rfingers 7.12502
rthumb 10.4601 -48.9476
lclavicle 6.3052e-016 -2.8625e-014
lhumerus -34.3816 9.10264 87.3749
lradius 26.7554
lwrist 20.7201
lhand -31.1605 8.47139
lfingers 7.12502
lthumb -4.43811 38.4049
rfemur 3.52871 1.27967 13.9429
rtibia 1.11319e-014
rfoot -7.5369 -17.5568
rtoes -4.42082
lfemur -9.89736 -28.1702 -8.72335
ltibia 22.9308
lfoot -29.3093 19.9344
ltoes -0.580119
513
root -10.4432 17.9049 -16.4159 -100.146 87.5731 -104.711
lowerback 3.48583 -0.0957992 1.30647
upperback -2.72943 0.0719917 2.09646
thorax -4.77839 0.0446937 1.42926
lowerneck -23.0223 -5.22997 -7.53413
upperneck 29.5261 -6.24233 5.71279
head 14.4667 -2.57982 2.44923
rclavicle 1.59028e-015 -1.63003e-014
rhumerus -37.1445 -2.00085 -80.3292
rradius 30.8174
rwrist 11.9681
rhand -15.92 -19.2783
rfingers 7.12502
rthumb 10.2773 -49.0072
lclavicle 1.59028e-015 -1.63003e-014
lhumerus -34.3929 9.23198 87.3211
lradius 26.6216
lwrist 20.4863
lhand -31.1402 8.41352
lfingers 7.12502
lthumb -4.41855 38.3474
rfemur 3.5535 1.26114 13.9691
rtibia 1.11319e-014
rfoot -7.56602 -17.5414
rtoes -4.37314
lfemur -9.88337 -28.0633 -8.69843
ltibia 22.9089
lfoot -29.1888 19.9032
ltoes -1.02047
514
root -10.4409 17.905 -16.4133 -100.246 87.572 -104.826
lowerback 3.46031 -0.101547 1.2625
upperback -2.73682 0.0621138 2.10917
thorax -4.77146 0.0416056 1.4678
lowerneck -23.0331 -5.23419 -7.54851
upperneck 29.5355 -6.2498 5.73419
head 14.4754 -2.58129 2.45913
rclavicle 2.14315e-016 -9.93923e-015
rhumerus -37.147 -1.89953 -80.388
rradius 30.808
rwrist 11.7845
rhand -16.0139 -19.2746
rfingers 7.12502
rthumb 10.1868 -49.008
lclavicle 2.14315e-016 -9.93923e-015
lhumerus -34.4191 9.34832 87.2523
lradius 26.4753
lwrist 20.286
lhand -31.0902 8.3613
lfingers 7.12502
lthumb -4.37019 38.2962
rfemur 3.5499 1.25484 13.9747
rtibia -1.43125e-014
rfoot -7.60088 -17.5283
rtoes -4.25807
lfemur -9.87381 -27.9225 -8.68321
ltibia 22.8559
lfoot -29.0356 19.8775
ltoes -1.5883
515
root -10.4383 17.906 -16.4102 -100.059 87.5859 -104.664
lowerback 3.42813 -0.104317 1.20268
upperback -2.74901 0.0550301 2.11702
thorax -4.76574 0.0403284 1.50997
lowerneck -23.0253 -5.23691 -7.54029
upperneck 29.5332 -6.25754 5.73384
head 14.473 -2.58381 2.4561
rclavicle 6.49156e-016 -5.96354e-015
rhumerus -37.1654 -1.82704 -80.4284
rradius 30.7873
rwrist 11.658
rhand -15.9821 -19.1733
rfingers 7.12502
rthumb 10.2175 -48.9051
lclavicle 6.49156e-016 -5.96354e-015
lhumerus -34.4608 9.42791 87.1768
lradius 26.3269
lwrist 20.1737
lhand -31.0105 8.32788
lfingers 7.12502
lthumb -4.29325 38.2644
rfemur 3.53027 1.26168 13.9694
rtibia 1.11319e-014
rfoot -7.63571 -17.5226
rtoes -4.0765
lfemur -9.86076 -27.8029 -8.67588
ltibia 22.7882
lfoot -28.9182 19.8519
ltoes -2.01454
516
root -10.4355 17.9076 -16.4069 -99.6426 87.6019 -104.271
lowerback 3.39637 -0.106847 1.13839
upperback -2.76156 0.0480229 2.12423
thorax -4.76063 0.0392196 1.55399
lowerneck -22.9952 -5.23804 -7.505
upperneck 29.5102 -6.26696 5.71067
head 14.4546 -2.58785 2.43852
rclavicle -1.27657e-015 3.97569e-015
rhumerus -37.193 -1.80468 -80.4387
rradius 30.7484
rwrist 11.6326
rhand -15.8517 -18.9963
rfingers 7.12502
rthumb 10.3432 -48.7219
lclavicle -1.27657e-015 3.97569e-015
lhumerus -34.5141 9.46436 87.1027
lradius 26.1759
lwrist 20.1617
lhand -30.9249 8.31813
lfingers 7.12502
lthumb -4.21062 38.2563
rfemur 3.51067 1.27855 13.9658
rtibia 1.59028e-015
rfoot -7.67335 -17.5223
rtoes -3.80092
lfemur -9.84044 -27.737 -8.66971
ltibia 22.7251
lfoot -28.8816 19.813
ltoes -2.08786
